<svg xmlns="http://www.w3.org/2000/svg" viewBox="0 0 1019.42 300"><defs><style>.cls-1{fill:#1621cb;}.cls-2{fill:#61c700;}</style></defs><g id="Layer_2" data-name="Layer 2"><g id="Layer_1-2" data-name="Layer 1"><g id="Powered_by_Preferabli_-_Two_Color_light_background_" data-name="Powered by Preferabli - Two Color (light background)"><path class="cls-1" d="M223.32,140.24c0-20.78-12.85-34.91-30.84-34.91-18.42,0-31.06,14.35-31.06,34.91,0,20.35,12.64,34.27,31.06,34.27,18.21,0,30.84-13.92,30.84-34.27m26.56,0c0,33-21.2,56.11-52,56.11-14.78,0-27-6.21-34.92-17.34v55.47H136.58V86.05h26.34v15.21c7.93-11.35,20.14-17.78,34.92-17.78,30.84,0,52,23.35,52,56.76"/><path class="cls-1" d="M260.59,86.05h26.34l-.85,28.06h.64c3.85-18.21,15.85-29.34,32.34-29.34a36.57,36.57,0,0,1,8.14,1.07v24.84a41.77,41.77,0,0,0-11.14-1.28c-16.49,0-29.13,10.28-29.13,34.27v50.12H260.59Z"/><path class="cls-1" d="M410.94,130.6c0-15.64-11.14-28.06-27.2-28.06-15.21,0-26.56,11.35-27.42,28.06Zm25.27,16.49H356.32c.43,17.14,12,29.77,28.71,29.77,13.06,0,24-7.49,26.12-18.63l23.14,1.93C431.93,181.36,411.58,197,385,197c-32.13,0-55.27-23.56-55.27-57,0-33.19,22.28-57.18,54.41-57.18,30.63,0,52.69,22.92,52.69,55.68a62,62,0,0,1-.65,8.57"/><path class="cls-1" d="M461.06,106.61H441.57V86.05h19.49V77.7c0-21,15.42-37.06,36-37.06a57.16,57.16,0,0,1,13.49,1.29v21a39.18,39.18,0,0,0-8.14-.86c-10.28,0-15,6-15,15.64v8.35h22.28v20.56H487.4v87.18H461.06Z"/><path class="cls-1" d="M595.35,130.6c0-15.64-11.14-28.06-27.21-28.06-15.2,0-26.55,11.35-27.41,28.06Zm25.27,16.49H540.73c.43,17.14,12,29.77,28.7,29.77,13.07,0,24-7.49,26.13-18.63l23.13,1.93C616.34,181.36,596,197,569.43,197c-32.13,0-55.26-23.56-55.26-57,0-33.19,22.28-57.18,54.4-57.18,30.63,0,52.69,22.92,52.69,55.68a61.91,61.91,0,0,1-.64,8.57"/><path class="cls-1" d="M631.75,86.05H658.1l-.86,28.06h.64c3.86-18.21,15.85-29.34,32.35-29.34a36.57,36.57,0,0,1,8.14,1.07v24.84a41.88,41.88,0,0,0-11.14-1.28c-16.49,0-29.13,10.28-29.13,34.27v50.12H631.75Z"/><path class="cls-1" d="M770.33,151v-6.86l-16.71,1.72c-16.06,1.28-25.06,7.92-25.06,18.42,0,8.78,6.86,14.35,17.35,14.35,15.21,0,24.42-11.78,24.42-27.63m-67.9,15.63c0-19.49,17.56-32.12,47.55-34.69l20.13-1.72v-4.71c0-12.42-8.78-21.2-21.41-21.2-12.86,0-21.85,8.13-22.49,20.13l-24.85-.64c1.07-24.21,20.13-40.91,47.34-40.91,27.84,0,47.55,18,47.55,44.12v34.91c0,11.57.85,24,2.35,31.92H773.11c-1.07-4.07-1.92-11.14-1.92-22.49h-.65c-3.85,14.56-16.28,24-34.27,24-20.77,0-33.84-11.13-33.84-28.7"/><path class="cls-1" d="M896.69,140.24c0-20.78-12.85-34.91-30.84-34.91-18.42,0-31.05,14.35-31.05,34.91,0,20.35,12.63,34.27,31.05,34.27,18.21,0,30.84-13.92,30.84-34.27m26.56,0c0,33-21.2,56.11-52,56.11-14.78,0-27-6.21-34.91-17.34v14.78H810V43.86H836.3v57.4c7.92-11.35,20.13-17.78,34.91-17.78,30.84,0,52,23.35,52,56.76"/><path class="cls-1" d="M934,160.16V43.86H960.3V154.8c0,11.36,4.07,16.71,13.28,16.71a18.37,18.37,0,0,0,6.64-1.28l.43,22.27a56,56,0,0,1-16.28,2.36c-17.35,0-30.41-10.5-30.41-34.7"/><path class="cls-1" d="M989,86.05h26.35V193.79H989Zm-3.85-32.56a17.14,17.14,0,0,1,34.27,0,17.14,17.14,0,1,1-34.27,0"/><path class="cls-2" d="M74.37,114.88a17.14,17.14,0,0,1,34.27,0,17.14,17.14,0,0,1-34.27,0"/><path class="cls-2" d="M74.37,169.79a17.14,17.14,0,1,1,34.27,0,17.14,17.14,0,0,1-34.27,0"/><path class="cls-2" d="M228.57,23.17c-4.12-2.51-8.3-4.82-12.58-6.91-.73-.37-1.47-.72-2.22-1.06L203.43,36.9,205.65,38a126.38,126.38,0,0,1,39.74,30.62h30.1a148.84,148.84,0,0,0-46.92-45.4m30.92,189.45c-.68,1.17-1.36,2.34-2.07,3.49A125.44,125.44,0,0,1,28.5,179.81c-.84-3.51-1.52-7-2.07-10.56-.12-.81-.24-1.61-.34-2.42L2.37,170.16c.11.81.23,1.61.35,2.42.63,4.28,1.47,8.54,2.49,12.81A149.53,149.53,0,0,0,150.21,300a151.29,151.29,0,0,0,35.12-4.17,149.24,149.24,0,0,0,101-83.21Z"/><path class="cls-2" d="M12.92,138.13a3.11,3.11,0,0,0-3-3.5,3.11,3.11,0,0,0-3.56,2.92l-.29,3.28,6.56.57ZM0,147.27l1-10.93c.49-5.58,4.7-9.14,9.58-8.71s8.41,4.67,7.91,10.25l-.35,4,8,.7-.61,6.93Z"/><path class="cls-2" d="M20.85,104.52c-4.17-1.25-7.93.71-9,4.29s1,7.28,5.15,8.53,7.86-.73,8.93-4.31-.95-7.27-5.08-8.51M15,124.07a13.71,13.71,0,1,1,16.91-9.25A13.58,13.58,0,0,1,15,124.07"/><polygon class="cls-2" points="12.1 89.1 15.96 82.71 32.38 88.06 19.87 76.23 24.11 69.22 40.38 74.82 27.94 62.86 31.76 56.54 49.95 75.94 45.95 82.58 28.53 76.76 41.79 89.47 37.74 96.17 12.1 89.1"/><polygon class="cls-2" points="36.69 52.05 49.7 38.78 53.57 42.57 45.42 50.88 48.82 54.2 55.94 46.94 59.59 50.52 52.48 57.79 55.93 61.17 64.12 52.81 68.04 56.65 54.98 69.97 36.69 52.05"/><path class="cls-2" d="M72.25,36.73a3.29,3.29,0,0,0-3.76-5.41l-3.67,2.55,3.76,5.41ZM56.05,33.3l9.6-6.69c4.78-3.32,9.95-3,12.6.82,1.92,2.76,1.23,6.5-1.71,9.07,3-1.82,5.46-1.12,7.37,1.38l2,2.61a7.15,7.15,0,0,0,1.87,1.91l-5.7,4a7.6,7.6,0,0,1-1.52-1.53l-2-2.62c-1.28-1.65-2.53-1.53-4.18-.38l-2.7,1.88,4.63,6.66-5.64,3.93Z"/><polygon class="cls-2" points="80.7 17.22 97.65 9.61 99.87 14.54 89.26 19.31 91.21 23.65 100.48 19.48 102.58 24.15 93.31 28.32 95.28 32.72 105.96 27.92 108.21 32.93 91.2 40.57 80.7 17.22"/><path class="cls-2" d="M120.69,23.88c4-.88,6.14-4.42,5.21-8.64s-4.36-6.53-8.36-5.65l-2.86.63,3.15,14.29ZM106.79,6.35l9.64-2.13c8-1.76,14.71,2.16,16.33,9.51s-2.82,13.73-10.82,15.49l-9.64,2.13Z"/><path class="cls-2" d="M158.79,10.77a2.49,2.49,0,1,0,.27-5l-4.46-.24-.27,5Zm.29,10.2a2.43,2.43,0,0,0,2.69-2.39,2.42,2.42,0,0,0-2.42-2.65l-5.29-.29-.28,5Zm-11-21,12,.65c5,.27,8.27,3.46,8,7.73a5.74,5.74,0,0,1-4.31,5.12,5.83,5.83,0,0,1,4.61,6.18c-.22,4.17-3.85,6.86-8.86,6.59l-12.89-.7Z"/><polygon class="cls-2" points="177.81 19.97 172.89 1.52 180.44 3.3 182.91 13.66 189.8 5.52 197.27 7.29 184.57 21.57 182.55 30.11 175.79 28.51 177.81 19.97"/></g></g></g></svg>